<svg width="190" height="58" viewBox="0 0 190 58" fill="none" xmlns="http://www.w3.org/2000/svg" role="img" aria-label="Envision">
  <rect width="190" height="58" rx="8" fill="white" fill-opacity="0"/>
  <g transform="translate(6 6)">
    <path d="M24 3C13.4 3 4.6 10.5 2.5 20.4c4.6-4.9 11.6-7.2 18.1-5.8 7.3 1.6 10.6 7.7 17.3 8.4 3.1.3 5.8-.5 8-1.8C44.9 10.9 35.5 3 24 3Z" fill="#1BAE87"/>
    <path d="M45.5 25.7c-5.3 4.2-12.7 5.6-19.1 3.4-7.2-2.5-9.8-8.9-16.2-10.2-3-.6-5.9-.1-8.3 1C2.3 31.2 11.8 40 23.4 40c10.9 0 20-7.8 22.1-18.1.1 1.2.1 2.5 0 3.8Z" fill="#0E7C86"/>
    <path d="M8.9 34.9c5.1 4.7 12.4 6.8 19.3 5.2 7.5-1.8 10.7-8.1 17.5-9.1 2.4-.3 4.7 0 6.7.7-3.2 7.4-10.6 12.6-19.2 12.6-10.3 0-18.9-7.3-20.8-17 .9 2.9-.4 5.4-3.5 7.6Z" fill="#78C640"/>
  </g>
  <text x="65" y="29" fill="#0D4F59" font-family="Arial, Helvetica, sans-serif" font-size="20" font-weight="700">Envision</text>
  <text x="66" y="45" fill="#46646A" font-family="Arial, Helvetica, sans-serif" font-size="9" font-weight="600" letter-spacing="1.8">ENERGY</text>
</svg>
